<svg xmlns="http://www.w3.org/2000/svg" viewBox="0 0 800 500"><rect width="800" height="500" fill="#F5F1E8"/><circle cx="600" cy="105" r="40" fill="#CBAB84" fill-opacity="0.55" stroke="none"/><g opacity="0.0"><path d="M 0 238 C 90 218, 170 226, 260 234 S 430 214, 540 228 S 720 220, 800 232" fill="none" stroke="#2B2620" stroke-width="3" stroke-linecap="round"/></g><defs><linearGradient id="hz1" x1="0" y1="0" x2="0" y2="1"><stop offset="0" stop-color="#B3A48F" stop-opacity="0.30"/><stop offset="0.45" stop-color="#B3A48F" stop-opacity="0.55"/><stop offset="1" stop-color="#B3A48F" stop-opacity="0.39"/></linearGradient></defs><rect x="0" y="0" width="800" height="500" fill="url(#hz1)"/><g opacity="0.18"><path d="M 0 292 L 8 262 L 16 292 L 23 270 L 29 292 L 38 256 L 48 292 L 53 274 L 58 292 L 63 276 L 67 292 L 72 276 L 76 292 L 83 266 L 90 292 L 95 276 L 99 292 L 107 262 L 116 292 L 123 266 L 130 292 L 134 276 L 139 292 L 146 266 L 153 292 L 159 270 L 165 292 L 169 276 L 174 292 L 178 276 L 183 292 L 193 256 L 202 292 L 212 256 L 222 292 L 227 276 L 231 292 L 237 270 L 243 292 L 248 276 L 252 292 L 259 266 L 266 292 L 276 256 L 286 292 L 290 276 L 295 292 L 302 266 L 309 292 L 314 276 L 318 292 L 324 270 L 330 292 L 335 274 L 340 292 L 345 274 L 350 292 L 357 266 L 364 292 L 369 276 L 373 292 L 380 266 L 387 292 L 394 266 L 402 292 L 411 256 L 421 292 L 426 276 L 430 292 L 436 270 L 442 292 L 447 276 L 451 292 L 458 266 L 465 292 L 471 270 L 477 292 L 486 262 L 494 292 L 504 256 L 514 292 L 520 270 L 526 292 L 533 266 L 540 292 L 545 276 L 549 292 L 556 266 L 563 292 L 571 262 L 580 292 L 587 266 L 594 292 L 599 274 L 604 292 L 610 270 L 616 292 L 620 276 L 625 292 L 632 266 L 639 292 L 646 266 L 653 292 L 658 274 L 663 292 L 669 270 L 675 292 L 684 262 L 692 292 L 696 276 L 701 292 L 708 266 L 715 292 L 720 274 L 725 292 L 729 276 L 734 292 L 741 266 L 748 292 L 752 276 L 757 292 L 764 266 L 771 292 L 777 270 L 783 292 L 793 256 L 803 292" fill="none" stroke="#2B2620" stroke-width="2.5" stroke-linejoin="round"/><line x1="140" y1="292" x2="140" y2="248" stroke="#2B2620" stroke-width="2" stroke-linecap="round"/><line x1="140" y1="262" x2="152" y2="252" stroke="#2B2620" stroke-width="2" stroke-linecap="round"/><line x1="470" y1="292" x2="470" y2="248" stroke="#2B2620" stroke-width="2" stroke-linecap="round"/><line x1="470" y1="262" x2="482" y2="252" stroke="#2B2620" stroke-width="2" stroke-linecap="round"/><line x1="660" y1="292" x2="660" y2="248" stroke="#2B2620" stroke-width="2" stroke-linecap="round"/><line x1="660" y1="262" x2="672" y2="252" stroke="#2B2620" stroke-width="2" stroke-linecap="round"/></g><defs><linearGradient id="hz2" x1="0" y1="0" x2="0" y2="1"><stop offset="0" stop-color="#B3A48F" stop-opacity="0.25"/><stop offset="0.45" stop-color="#B3A48F" stop-opacity="0.45"/><stop offset="1" stop-color="#B3A48F" stop-opacity="0.32"/></linearGradient></defs><rect x="0" y="0" width="800" height="500" fill="url(#hz2)"/><g opacity="0.5"><line x1="70" y1="330" x2="130" y2="330" stroke="#2B2620" stroke-width="2" stroke-linecap="round"/><line x1="200" y1="352" x2="240" y2="352" stroke="#2B2620" stroke-width="2" stroke-linecap="round"/><line x1="330" y1="372" x2="404" y2="372" stroke="#2B2620" stroke-width="2" stroke-linecap="round"/><line x1="520" y1="340" x2="572" y2="340" stroke="#2B2620" stroke-width="2" stroke-linecap="round"/><line x1="640" y1="366" x2="684" y2="366" stroke="#2B2620" stroke-width="2" stroke-linecap="round"/><line x1="150" y1="400" x2="206" y2="400" stroke="#2B2620" stroke-width="2" stroke-linecap="round"/><line x1="430" y1="412" x2="496" y2="412" stroke="#2B2620" stroke-width="2" stroke-linecap="round"/><line x1="600" y1="430" x2="650" y2="430" stroke="#2B2620" stroke-width="2" stroke-linecap="round"/><line x1="90" y1="452" x2="134" y2="452" stroke="#2B2620" stroke-width="2" stroke-linecap="round"/><line x1="300" y1="448" x2="358" y2="448" stroke="#2B2620" stroke-width="2" stroke-linecap="round"/><line x1="700" y1="396" x2="740" y2="396" stroke="#2B2620" stroke-width="2" stroke-linecap="round"/><line x1="500" y1="470" x2="564" y2="470" stroke="#2B2620" stroke-width="2" stroke-linecap="round"/><g stroke="#2B2620" stroke-width="2.5" fill="none" stroke-linecap="round"><path d="M 268 344 Q 292 356 322 344 L 310 338 Q 288 346 272 340 Z" fill="#2B2620" stroke="none"/><path d="M 314 340 C 318 328, 314 320, 320 312 C 324 306, 330 306, 332 310"/><circle cx="329" cy="311" r="5" fill="#2B2620" stroke="none"/><line x1="333" y1="310" x2="345" y2="308"/><line x1="252" y1="348" x2="268" y2="346"/><line x1="326" y1="348" x2="342" y2="347"/></g></g><defs><linearGradient id="hz3" x1="0" y1="0" x2="0" y2="1"><stop offset="0" stop-color="#B3A48F" stop-opacity="0.14"/><stop offset="0.45" stop-color="#B3A48F" stop-opacity="0.26"/><stop offset="1" stop-color="#B3A48F" stop-opacity="0.18"/></linearGradient></defs><rect x="0" y="0" width="800" height="500" fill="url(#hz3)"/><g opacity="1.0"><path d="M 60 500 L 330 322" fill="none" stroke="#2B2620" stroke-width="3" stroke-linecap="round"/><path d="M 250 500 L 400 322" fill="none" stroke="#2B2620" stroke-width="3" stroke-linecap="round"/><line x1="92" y1="479" x2="268" y2="479" stroke="#2B2620" stroke-width="2" stroke-linecap="round"/><line x1="130" y1="454" x2="289" y2="454" stroke="#2B2620" stroke-width="2" stroke-linecap="round"/><line x1="168" y1="429" x2="310" y2="429" stroke="#2B2620" stroke-width="2" stroke-linecap="round"/><line x1="206" y1="404" x2="331" y2="404" stroke="#2B2620" stroke-width="2" stroke-linecap="round"/><line x1="244" y1="379" x2="352" y2="379" stroke="#2B2620" stroke-width="2" stroke-linecap="round"/><line x1="281" y1="354" x2="373" y2="354" stroke="#2B2620" stroke-width="2" stroke-linecap="round"/><line x1="314" y1="333" x2="391" y2="333" stroke="#2B2620" stroke-width="2" stroke-linecap="round"/><line x1="332" y1="322" x2="332" y2="352" stroke="#2B2620" stroke-width="3" stroke-linecap="round"/><line x1="398" y1="322" x2="398" y2="352" stroke="#2B2620" stroke-width="3" stroke-linecap="round"/><ellipse cx="332" cy="356" rx="16" ry="4" fill="none" stroke="#2B2620" stroke-width="1.5"/><ellipse cx="398" cy="356" rx="16" ry="4" fill="none" stroke="#2B2620" stroke-width="1.5"/><g stroke="#2B2620" stroke-width="2" fill="none" stroke-linecap="round"><path d="M 730 500 C 726 452, 734 420, 728 392"/><path d="M 756 500 C 760 448, 750 416, 758 380"/><path d="M 782 500 C 778 456, 786 430, 780 404"/><rect x="723" y="376" width="9" height="22" rx="4" fill="#2B2620" stroke="none"/><rect x="753" y="362" width="9" height="24" rx="4" fill="#2B2620" stroke="none"/></g></g><defs><linearGradient id="hz4" x1="0" y1="0" x2="0" y2="1"><stop offset="0" stop-color="#B3A48F" stop-opacity="0.04"/><stop offset="0.45" stop-color="#B3A48F" stop-opacity="0.08"/><stop offset="1" stop-color="#B3A48F" stop-opacity="0.06"/></linearGradient></defs><rect x="0" y="0" width="800" height="500" fill="url(#hz4)"/></svg>